<svg width="707" height="132" viewBox="0 0 707 132" fill="none" xmlns="http://www.w3.org/2000/svg">
<path d="M107.719 10.6562C107.219 10.9688 106.688 11.1562 106.125 11.2188C105.562 11.2812 104.969 11.375 104.344 11.5C103.781 11.5625 103.25 11.6875 102.75 11.875C102.25 12.0625 101.875 12.4062 101.625 12.9062C101 12.2812 100.312 11.75 99.5625 11.3125C98.8125 10.875 98.0625 10.4062 97.3125 9.90625C96.6875 10.0938 96.0625 10.3438 95.4375 10.6562C94.8125 10.9688 94.1875 11.125 93.5625 11.125C93.125 11.125 92.6875 10.9688 92.25 10.6562C91.75 11.0312 91.1562 11.3438 90.4688 11.5938C89.8438 11.7812 89.1562 11.9688 88.4062 12.1562C87.7188 12.3438 87.0625 12.5938 86.4375 12.9062C85.875 13.2188 85.4688 13.6875 85.2188 14.3125C85.0938 14 84.7812 13.9062 84.2812 14.0312C83.8438 14.1562 83.5938 14 83.5312 13.5625C81.5312 14.25 79.5 14.8438 77.4375 15.3438C75.375 15.8438 73.3125 16.375 71.25 16.9375C69.1875 17.5 67.1562 18.125 65.1562 18.8125C63.1562 19.5 61.2188 20.3438 59.3438 21.3438C59.2812 21.4062 59.25 21.5 59.25 21.625C59.25 22.25 59.3438 22.8438 59.5312 23.4062C59.7188 23.9688 59.875 24.5 60 25C58.875 28.8125 58.125 32.6875 57.75 36.625C57.375 40.5625 56.875 44.4375 56.25 48.25V48.625C56.25 48.9375 56.375 49.1875 56.625 49.375C56.875 49.5 57 49.75 57 50.125L56.9062 50.3125C56.5938 50.5 56.375 50.7812 56.25 51.1562C56.125 51.4688 56.0625 51.8125 56.0625 52.1875C56.0625 52.4375 56.125 52.8125 56.25 53.3125C55.1875 56.875 54.4688 60.5 54.0938 64.1875C53.7812 67.875 53.375 71.5625 52.875 75.25L52.0312 81.4375C51.9062 81.8125 51.7812 82.1875 51.6562 82.5625C51.5938 82.875 51.5625 83.2188 51.5625 83.5938C51.5625 85.5938 51.6875 87.5625 51.9375 89.5C52.25 91.375 52.3438 93.3125 52.2188 95.3125C52.7812 96.1875 53.0625 97.0312 53.0625 97.8438C53.0625 98.1562 53.0312 98.4688 52.9688 98.7812C52.9688 99.0938 52.9375 99.4062 52.875 99.7188C53.6875 100.531 54.625 101.094 55.6875 101.406C56.8125 101.781 57.8125 102.344 58.6875 103.094V103.469C58.6875 104.094 58.5938 104.688 58.4062 105.25C58.2188 105.875 58.0625 106.5 57.9375 107.125C57.8125 107.625 57.6562 108.344 57.4688 109.281C57.3438 110.219 57.1562 110.844 56.9062 111.156C56.5938 111.594 56.125 111.969 55.5 112.281C54.9375 112.656 54.375 112.844 53.8125 112.844C53.625 112.844 53.3438 112.75 52.9688 112.562C52.6562 112.375 52.4062 112.219 52.2188 112.094C51.9062 112.094 51.5 112.25 51 112.562C50.5 112.875 50 113.031 49.5 113.031C49.25 113.031 49.0312 113 48.8438 112.938C48.6562 112.938 48.4375 112.875 48.1875 112.75C47.9375 112.125 47.5625 111.562 47.0625 111.062C46.625 110.625 46.0938 110.188 45.4688 109.75C45.5312 108.875 45.375 108.219 45 107.781C44.625 107.344 44.25 106.781 43.875 106.094C43.75 105.219 43.625 104.219 43.5 103.094C43.4375 101.969 42.9688 101.156 42.0938 100.656C42.4062 100.219 42.5625 99.625 42.5625 98.875C42.5625 98.5625 42.5 98.2188 42.375 97.8438C42.3125 97.4688 42.125 97.1875 41.8125 97V96.8125C41.75 96.5 41.8438 96.2812 42.0938 96.1562C42.4062 95.9688 42.5625 95.7188 42.5625 95.4062V95.0312C42.125 93.0312 41.9062 90.9375 41.9062 88.75C41.9062 86.6875 41.9688 84.6562 42.0938 82.6562C42.2188 80.5938 42.2188 78.5312 42.0938 76.4688C42.4688 76.1562 42.75 75.6562 42.9375 74.9688C43.1875 74.2812 43.375 73.5312 43.5 72.7188C43.625 71.9062 43.6875 71.125 43.6875 70.375C43.75 69.5625 43.8125 68.9062 43.875 68.4062C44.1875 64.8438 44.6875 61.3438 45.375 57.9062C46.0625 54.4062 46.4688 50.8438 46.5938 47.2188C46.9062 46.7188 47.0938 46.0625 47.1562 45.25C47.2188 44.4375 47.25 43.5938 47.25 42.7188C47.25 41.7812 47.3125 40.875 47.4375 40C47.5625 39.125 47.8125 38.375 48.1875 37.75C48.1875 36 48.3438 34.25 48.6562 32.5C48.9688 30.6875 49.125 28.875 49.125 27.0625C49.125 26.1875 49.0312 25.2812 48.8438 24.3438C48.2188 24.0938 47.6562 23.9688 47.1562 23.9688C46.4688 23.9688 45.75 24.125 45 24.4375C44.3125 24.6875 43.8125 25.0938 43.5 25.6562C42.125 25.7188 40.7812 25.9375 39.4688 26.3125C38.1562 26.6875 36.8438 26.875 35.5312 26.875H34.5938C34.3438 26.875 34.0625 26.8438 33.75 26.7812C33.3125 26.9688 32.8438 27.125 32.3438 27.25C31.9062 27.375 31.7188 27.75 31.7812 28.375C29.8438 28.5625 27.9375 28.9688 26.0625 29.5938C24.25 30.2188 22.4375 30.9062 20.625 31.6562C18.8125 32.3438 17 33 15.1875 33.625C13.3125 34.25 11.4062 34.6562 9.46875 34.8438C8.78125 35.1562 8.34375 35.8125 8.15625 36.8125C6.78125 36.6875 5.625 36.3438 4.6875 35.7812C3.75 35.2188 2.65625 34.6875 1.40625 34.1875C1.03125 32.875 0.84375 31.625 0.84375 30.4375C0.84375 28.875 1.15625 27.375 1.78125 25.9375C2.40625 24.5 3.40625 23.4375 4.78125 22.75C5.09375 22.8125 5.375 22.875 5.625 22.9375C5.875 22.9375 6.15625 22.9375 6.46875 22.9375C7.46875 22.9375 8.46875 22.75 9.46875 22.375C10.4688 22 11.5 21.8125 12.5625 21.8125C12.875 21.8125 13.2188 21.9062 13.5938 22.0938C14.0312 21.8438 14.5938 21.6562 15.2812 21.5312C15.9062 21.3438 16.5 21.1875 17.0625 21.0625C17.6875 20.875 18.25 20.625 18.75 20.3125C19.25 20 19.5625 19.5625 19.6875 19C20 19.25 20.3438 19.4062 20.7188 19.4688C21.0938 19.5312 21.4688 19.5625 21.8438 19.5625C22.6562 19.5625 23.5 19.4062 24.375 19.0938C25.25 18.7812 25.9375 18.2812 26.4375 17.5938C26.875 18.0938 27.5 18.3438 28.3125 18.3438C29.1875 18.3438 30.0312 18.125 30.8438 17.6875C31.7188 17.1875 32.5625 16.9375 33.375 16.9375C34 16.9375 34.4688 17.1562 34.7812 17.5938C35.4688 17.0312 36.2812 16.5938 37.2188 16.2812C38.1562 15.9688 39.0938 15.6875 40.0312 15.4375C41.0312 15.1875 41.9375 14.9062 42.75 14.5938C43.625 14.2812 44.3125 13.8438 44.8125 13.2812C45.125 13.3438 45.625 13.375 46.3125 13.375C47.375 13.375 48.375 13.25 49.3125 13C50.3125 12.6875 51.3125 12.4062 52.3125 12.1562L54.2812 11.9688C54.7812 11.9062 55.2188 11.75 55.5938 11.5C56.0312 11.25 56.4688 11.0312 56.9062 10.8438C57.3438 10.6562 57.7812 10.5 58.2188 10.375C58.7188 10.25 59.3125 10.2188 60 10.2812C61.5 9.46875 63.0938 8.84375 64.7812 8.40625C66.4688 7.96875 68.1875 7.59375 69.9375 7.28125C71.6875 6.90625 73.4062 6.5 75.0938 6.0625C76.7812 5.5625 78.375 4.84375 79.875 3.90625H80.1562C81.4062 3.90625 82.625 3.6875 83.8125 3.25C85.0625 2.8125 86.2188 2.21875 87.2812 1.46875C87.4688 1.53125 87.6562 1.5625 87.8438 1.5625H88.5C90.25 1.5625 91.9375 1.3125 93.5625 0.8125C95.25 0.3125 97 0.0625 98.8125 0.0625C99.875 0.0625 100.719 0.21875 101.344 0.53125C101.969 0.78125 102.531 1.125 103.031 1.5625C103.531 1.9375 104.062 2.3125 104.625 2.6875C105.188 3.0625 105.906 3.34375 106.781 3.53125C107.344 4.59375 107.625 5.75 107.625 7C107.625 8.1875 107.656 9.40625 107.719 10.6562ZM199.031 83.6875C198.906 84.625 198.562 85.3438 198 85.8438C197.5 86.3438 196.906 86.8125 196.219 87.25C195.906 87.1875 195.594 87.1562 195.281 87.1562C195.031 87.0938 194.75 87.0625 194.438 87.0625C192.5 87 190.656 87.25 188.906 87.8125C187.219 88.375 185.469 88.7812 183.656 89.0312C183.031 89.1562 182.438 89.2188 181.875 89.2188C181.375 89.1562 180.844 89.1875 180.281 89.3125C178.281 89.625 176.156 89.875 173.906 90.0625C171.656 90.25 169.406 90.5 167.156 90.8125C164.906 91.0625 162.688 91.4062 160.5 91.8438C158.375 92.2188 156.375 92.7812 154.5 93.5312C154.312 93.4062 154.125 93.2812 153.938 93.1562C153.75 92.9688 153.531 92.875 153.281 92.875C152.656 92.875 152.062 92.9688 151.5 93.1562C150.938 93.3438 150.375 93.4062 149.812 93.3438C149.188 93.7188 148.5 94 147.75 94.1875C147.062 94.3125 146.344 94.4375 145.594 94.5625C144.906 94.625 144.219 94.75 143.531 94.9375C142.844 95.125 142.188 95.4688 141.562 95.9688C141.062 95.7188 140.438 95.5938 139.688 95.5938C139 95.5312 138.531 95.2812 138.281 94.8438C136.844 95.5312 135.312 95.9688 133.688 96.1562C132.125 96.3438 130.531 96.4062 128.906 96.3438C127.844 96.2812 126.625 96.125 125.25 95.875C123.875 95.625 122.5 95.2812 121.125 94.8438C119.75 94.3438 118.469 93.7812 117.281 93.1562C116.094 92.4688 115.188 91.6562 114.562 90.7188C114.125 90.0938 113.812 89.4062 113.625 88.6562C113.438 87.9062 113 87.3438 112.312 86.9688C112.5 85.5312 112.719 84.125 112.969 82.75C113.219 81.375 113.469 79.9688 113.719 78.5312C114.969 77.4688 116.156 76.3438 117.281 75.1562C118.406 73.9688 119.469 72.7188 120.469 71.4062C121.656 70.8438 122.75 70.1562 123.75 69.3438C124.812 68.5312 125.844 67.7188 126.844 66.9062C127.906 66.0312 128.938 65.1875 129.938 64.375C131 63.5625 132.125 62.8438 133.312 62.2188C133.5 61.7812 133.75 61.4375 134.062 61.1875C134.438 60.875 134.812 60.5938 135.188 60.3438C135.562 60.0312 135.906 59.7188 136.219 59.4062C136.531 59.0312 136.75 58.5938 136.875 58.0938C139.062 56.7812 140.969 55.125 142.594 53.125C144.219 51.125 145.281 48.875 145.781 46.375C144.719 45.5 143.5 44.9375 142.125 44.6875C140.812 44.375 139.438 44.1562 138 44.0312C136.75 43.9688 135.438 43.9688 134.062 44.0312C132.75 44.0938 131.406 44.0625 130.031 43.9375C128.656 44.375 127.219 44.6562 125.719 44.7812C124.281 44.9062 122.844 45.0312 121.406 45.1562C119.969 45.2188 118.531 45.4062 117.094 45.7188C115.719 45.9688 114.375 46.4688 113.062 47.2188C112.812 47.2188 112.562 47.1875 112.312 47.125C112.125 47.0625 111.906 47.0312 111.656 47.0312C109.656 46.9688 107.781 47.375 106.031 48.25C104.281 49.0625 102.562 49.875 100.875 50.6875C100.75 50.9375 100.688 51.125 100.688 51.25C100.688 51.625 100.75 52 100.875 52.375C101.062 52.6875 101.156 53.0312 101.156 53.4062C101.094 53.4688 101.062 53.5312 101.062 53.5938C101.062 53.6562 101.031 53.7188 100.969 53.7812C100.906 54.0938 100.812 54.375 100.688 54.625C100.625 54.875 100.531 55.1562 100.406 55.4688C99.7188 57.4688 99.3438 59.4375 99.2812 61.375C99.2188 63 99.2188 64.5938 99.2812 66.1562C99.3438 67.7188 99.3438 69.3125 99.2812 70.9375C99.1562 72.9375 98.8438 74.8125 98.3438 76.5625C98.6562 78.0625 98.9375 79.6562 99.1875 81.3438C99.4375 82.9688 99.75 84.5938 100.125 86.2188C100.5 87.8438 100.938 89.4375 101.438 91C102 92.5 102.719 93.9375 103.594 95.3125C103.531 95.4375 103.562 95.5312 103.688 95.5938C103.812 95.6562 103.938 95.6875 104.062 95.6875H104.812C105.125 95.6875 105.25 95.8125 105.188 96.0625C105.312 96.25 105.406 96.4375 105.469 96.625C105.531 96.75 105.656 96.875 105.844 97C105.969 97.1875 105.969 97.4375 105.844 97.75C105.781 99 105.469 100.156 104.906 101.219C104.344 102.281 104 103.438 103.875 104.688C103.125 104.875 102.438 104.969 101.812 104.969C100.75 104.906 99.8125 104.594 99 104.031C98.1875 103.531 97.4375 102.906 96.75 102.156C96.0625 101.406 95.4062 100.656 94.7812 99.9062C94.1562 99.0938 93.4688 98.4062 92.7188 97.8438C92.2812 96.0938 91.8438 94.1562 91.4062 92.0312C91.0312 89.9062 90.375 88.0938 89.4375 86.5938C89.6875 86.0312 89.8125 85.3438 89.8125 84.5312C89.875 83.2812 89.75 82.0625 89.4375 80.875C89.1875 79.625 89.125 78.375 89.25 77.125C89.25 76.4375 89.3125 75.75 89.4375 75.0625C89.625 74.375 89.75 73.6875 89.8125 73C89.875 71.9375 89.75 70.9062 89.4375 69.9062C89.1875 68.9062 89.0938 67.875 89.1562 66.8125C89.2188 66.3125 89.3125 65.8438 89.4375 65.4062C89.625 64.9062 89.875 64.4688 90.1875 64.0938C89.875 63.3438 89.7812 62.625 89.9062 61.9375C89.9688 60.875 90.0938 59.875 90.2812 58.9375C90.4688 58 90.5938 57.0625 90.6562 56.125C90.6562 55.625 90.625 55.1562 90.5625 54.7188C90.5 54.2188 90.4062 53.75 90.2812 53.3125L89.4375 53.0312C89.0625 53.0312 88.6875 53.125 88.3125 53.3125C88 53.5 87.7188 53.7188 87.4688 53.9688C87.2188 54.2188 87 54.4375 86.8125 54.625C86.625 54.75 86.4375 54.8125 86.25 54.8125C86.125 54.8125 85.9688 54.8125 85.7812 54.8125C85.6562 54.75 85.5312 54.7188 85.4062 54.7188C85.2812 54.7188 85.0312 54.8438 84.6562 55.0938C84.3438 55.3438 83.9375 55.625 83.4375 55.9375C83 56.1875 82.5625 56.4688 82.125 56.7812C81.6875 57.0312 81.3438 57.1875 81.0938 57.25C80.4062 57.125 79.8438 56.9062 79.4062 56.5938C79.0312 56.2188 78.6562 55.875 78.2812 55.5625C77.9688 55.1875 77.625 54.875 77.25 54.625C76.875 54.3125 76.4062 54.1875 75.8438 54.25C75.6562 53.875 75.5625 53.4688 75.5625 53.0312C75.5 52.5938 75.5 52.1562 75.5625 51.7188V50.2188C76 49.4062 76.5938 48.75 77.3438 48.25C78.0312 47.6875 78.7812 47.2188 79.5938 46.8438L82.0312 45.7188C82.8438 45.3438 83.5938 44.875 84.2812 44.3125H85.125C86.25 44.375 87.2188 44.1562 88.0312 43.6562C88.9062 43.1562 89.7188 42.5938 90.4688 41.9688C91.2188 41.2812 91.9688 40.5938 92.7188 39.9062C93.5312 39.2188 94.4062 38.6875 95.3438 38.3125C96.0312 38.625 96.75 38.9062 97.5 39.1562C98.25 39.3438 99.0312 39.4688 99.8438 39.5312C100.656 39.5312 101.5 39.4062 102.375 39.1562C103.25 38.9062 103.938 38.4375 104.438 37.75C104.75 37.875 105 37.9688 105.188 38.0312C105.438 38.0312 105.719 38.0312 106.031 38.0312C106.969 38.0938 107.906 37.9688 108.844 37.6562C109.781 37.2812 110.688 36.8438 111.562 36.3438C112.812 36.4062 114.031 36.3438 115.219 36.1562C116.469 35.9062 117.688 35.6562 118.875 35.4062C120.125 35.1562 121.344 34.9375 122.531 34.75C123.781 34.5 125.031 34.4062 126.281 34.4688C128.344 34.5312 130.375 34.3438 132.375 33.9062C134.375 33.4688 136.406 33.3125 138.469 33.4375C139.906 33.5 141.312 33.625 142.688 33.8125C144.125 33.9375 145.562 33.9688 147 33.9062C147.812 34.2812 148.531 34.625 149.156 34.9375C149.844 35.1875 150.688 35.25 151.688 35.125C153.688 36.8125 155.5 38.7812 157.125 41.0312V42.625C157.062 44.0625 156.812 45.4688 156.375 46.8438C155.938 48.2188 155.406 49.5938 154.781 50.9688C154.219 52.2812 153.594 53.5938 152.906 54.9062C152.219 56.1562 151.562 57.4062 150.938 58.6562C146.875 62.3438 142.812 66 138.75 69.625C134.688 73.25 130.5 76.75 126.188 80.125C126.062 80.75 125.875 81.3125 125.625 81.8125C125.438 82.3125 125.312 82.8438 125.25 83.4062C125.25 83.7188 125.281 83.9688 125.344 84.1562C125.781 84.2812 126.156 84.5312 126.469 84.9062C126.844 85.2188 126.969 85.6562 126.844 86.2188H127.688C128 86.2188 128.156 86.3438 128.156 86.5938L129.656 86.6875C132.031 86.8125 134.406 86.75 136.781 86.5C139.156 86.25 141.531 85.9688 143.906 85.6562C146.344 85.3438 148.75 85.0625 151.125 84.8125C153.5 84.5 155.875 84.3125 158.25 84.25C158.812 84.0625 159.406 83.9062 160.031 83.7812C160.656 83.6562 161.219 83.4062 161.719 83.0312H162C162.438 83.0312 162.75 83.1562 162.938 83.4062C163.188 83.6562 163.531 83.8125 163.969 83.875C164.281 83.875 164.594 83.8125 164.906 83.6875C165.281 83.5625 165.656 83.4688 166.031 83.4062C166.906 83.1562 167.812 83 168.75 82.9375C169.75 82.875 170.719 82.7812 171.656 82.6562C175.281 82.3438 178.875 82.1562 182.438 82.0938C186 81.9688 189.562 81.5 193.125 80.6875C193.438 81.125 193.875 81.4375 194.438 81.625C195 81.75 195.594 81.9062 196.219 82.0938C196.844 82.2188 197.406 82.375 197.906 82.5625C198.469 82.75 198.844 83.125 199.031 83.6875ZM192.656 87.1562C192.344 87.6562 191.969 88.125 191.531 88.5625C191.094 88.9375 190.688 89.3438 190.312 89.7812C189.875 89.9688 189.375 90.0625 188.812 90.0625C188.312 90.0625 187.812 90.0625 187.312 90.0625C186.875 90 186.438 90 186 90.0625C185.625 90.0625 185.312 90.1875 185.062 90.4375C184.562 90.3125 184.188 90.0938 183.938 89.7812C183.688 89.4062 183.25 89.1875 182.625 89.125C182.375 89.0625 182.125 89.0625 181.875 89.125C180.938 88.0625 180.062 86.9375 179.25 85.75C178.5 84.5625 177.781 83.4375 177.094 82.375C177.031 80.0625 176.844 77.7188 176.531 75.3438C176.469 74.7812 176.375 74.2188 176.25 73.6562C176.125 73.0938 176.031 72.5625 175.969 72.0625C175.969 71.4375 176 70.8438 176.062 70.2812C176.188 69.6562 176.281 69.0938 176.344 68.5938C176.594 66.7812 176.875 65 177.188 63.25C177.5 61.5 177.781 59.7188 178.031 57.9062C178.281 56.2812 178.406 54.5938 178.406 52.8438C178.406 51.0312 178.125 49.3438 177.562 47.7812L177.469 47.3125C177.594 46.8125 177.719 46.4062 177.844 46.0938C178.031 45.7188 178.156 45.3125 178.219 44.875C178.344 44.1875 178.188 43.6875 177.75 43.375C177.938 42.875 178.25 42.5625 178.688 42.4375C179.125 42.25 179.375 41.875 179.438 41.3125C179.5 41.0625 179.5 40.8125 179.438 40.5625C179.938 40.375 180.438 40.2188 180.938 40.0938C181.5 39.9062 182.031 39.875 182.531 40C183.344 40.125 184.062 40.4062 184.688 40.8438C185.312 41.2188 185.906 41.6562 186.469 42.1562C187.469 45.1562 187.875 48.3438 187.688 51.7188C187.5 55.0312 187.188 58.375 186.75 61.75C186.312 65.125 186.031 68.4375 185.906 71.6875C185.781 74.875 186.281 77.8438 187.406 80.5938L187.594 80.6875C187.906 80.75 188.156 80.6562 188.344 80.4062C188.531 80.0938 188.781 79.9688 189.094 80.0312C189.344 80.1562 189.5 80.2188 189.562 80.2188C189.812 81.4688 190.219 82.6562 190.781 83.7812C191.344 84.9062 191.969 86.0312 192.656 87.1562ZM253.031 33.25C253.031 34.3125 252.969 35.3438 252.844 36.3438C252.781 37.2812 252.594 38.2812 252.281 39.3438C251.719 39.7812 251.219 40.3125 250.781 40.9375L249.469 42.7188C249.031 43.2812 248.562 43.8438 248.062 44.4062C247.562 44.9062 246.938 45.3125 246.188 45.625C245.562 48.375 244.781 51.0312 243.844 53.5938C242.969 56.0938 242.312 58.7188 241.875 61.4688C241.125 62.8438 240.531 64.3438 240.094 65.9688C239.656 67.5938 239.188 69.25 238.688 70.9375C238.25 72.5625 237.75 74.125 237.188 75.625C236.625 77.125 235.844 78.4688 234.844 79.6562C234.344 81.1562 233.844 82.7812 233.344 84.5312C232.844 86.2188 232 87.625 230.812 88.75C230.875 88.875 230.906 89.0625 230.906 89.3125C230.906 90.0625 230.719 90.7812 230.344 91.4688C229.969 92.0938 229.781 92.75 229.781 93.4375C228.781 94.1875 227.812 95.0625 226.875 96.0625C226 97.0625 225.094 98.0625 224.156 99.0625C223.219 100.062 222.219 100.938 221.156 101.688C220.094 102.438 218.938 102.938 217.688 103.188C216.812 102.562 216 101.844 215.25 101.031C214.5 100.281 213.625 99.6562 212.625 99.1562C212.125 96.3438 211.812 93.5938 211.688 90.9062C211.625 88.1562 211.406 85.4375 211.031 82.75C210.781 81.1875 210.375 79.6875 209.812 78.25C209.312 76.8125 209.062 75.3438 209.062 73.8438C209.062 73.5312 209.062 73.2188 209.062 72.9062C209.125 72.5312 209.188 72.1875 209.25 71.875C208.625 71.1875 208.219 70.3438 208.031 69.3438C207.844 68.2812 207.688 67.2188 207.562 66.1562C207.438 65.0312 207.25 63.9375 207 62.875C206.812 61.8125 206.438 60.9062 205.875 60.1562C206.125 59.9062 206.25 59.5625 206.25 59.125C206.25 58.8125 206.188 58.5 206.062 58.1875C206 57.875 205.969 57.5625 205.969 57.25C205.969 57 206.062 56.7188 206.25 56.4062C205.75 55.7812 205.406 55.2188 205.219 54.7188C205.094 54.1562 205 53.625 204.938 53.125C204.875 52.5625 204.812 52 204.75 51.4375C204.75 50.875 204.688 50.2812 204.562 49.6562C204.438 49.2188 204.219 48.9062 203.906 48.7188C203.656 48.4688 203.531 48.2812 203.531 48.1562C203.531 47.8438 203.656 47.5938 203.906 47.4062C203.031 46.1562 202.312 44.8438 201.75 43.4688C201.188 42.0938 200.562 40.7188 199.875 39.3438C199.938 38.6562 200.188 38.125 200.625 37.75C201.062 37.375 201.375 36.875 201.562 36.25H204.562C207.312 41.625 209.406 47.2188 210.844 53.0312C212.344 58.7812 213.656 64.5938 214.781 70.4688C215.094 72.1562 215.375 73.8438 215.625 75.5312C215.938 77.2188 216.281 78.9375 216.656 80.6875C216.781 81.0625 216.969 81.4688 217.219 81.9062C217.469 82.3438 217.594 82.7812 217.594 83.2188C217.594 83.5938 217.5 83.9688 217.312 84.3438C217.688 84.5938 217.969 84.9375 218.156 85.375C218.406 85.8125 218.594 86.2812 218.719 86.7812C218.906 87.2188 219.062 87.6875 219.188 88.1875C219.312 88.625 219.5 89.0312 219.75 89.4062C220.5 89.3438 221.156 89 221.719 88.375C222.281 87.75 222.781 87.0312 223.219 86.2188C223.719 85.3438 224.156 84.5 224.531 83.6875C224.969 82.8125 225.469 82.125 226.031 81.625C226.094 80.9375 226.219 80.2812 226.406 79.6562C226.656 78.9688 226.781 78.2812 226.781 77.5938C227.406 76.5312 227.969 75.5312 228.469 74.5938C228.969 73.6562 229.281 72.5312 229.406 71.2188C229.719 70.9688 229.906 70.7812 229.969 70.6562C230.031 70.4688 230.312 70.4375 230.812 70.5625C230.812 68.875 231.062 67.25 231.562 65.6875C232.125 64.0625 232.875 62.5312 233.812 61.0938C233.938 59.6562 234.219 58.2188 234.656 56.7812C235.156 55.2812 235.719 53.8125 236.344 52.375C236.531 51.9375 236.781 51.4375 237.094 50.875C237.406 50.25 237.562 49.6875 237.562 49.1875C237.562 48.9375 237.5 48.7188 237.375 48.5312C237.312 48.2812 237.281 48.0312 237.281 47.7812C237.281 47.2812 237.469 46.8438 237.844 46.4688C238.219 46.0938 238.562 45.7188 238.875 45.3438C238.875 43.9062 239.031 42.4688 239.344 41.0312C239.656 39.5938 240.281 38.3438 241.219 37.2812C241.531 35.1562 241.938 33.0938 242.438 31.0938C242.938 29.0312 243.656 27.0625 244.594 25.1875H247.969C247.969 24 248.5 23.4062 249.562 23.4062C250.188 23.4062 250.875 23.5625 251.625 23.875C252.125 25.25 252.469 26.8125 252.656 28.5625C252.906 30.25 253.031 31.8125 253.031 33.25ZM273.094 87.1562C272.781 87.6562 272.406 88.125 271.969 88.5625C271.531 88.9375 271.125 89.3438 270.75 89.7812C270.312 89.9688 269.812 90.0625 269.25 90.0625C268.75 90.0625 268.25 90.0625 267.75 90.0625C267.312 90 266.875 90 266.438 90.0625C266.062 90.0625 265.75 90.1875 265.5 90.4375C265 90.3125 264.625 90.0938 264.375 89.7812C264.125 89.4062 263.688 89.1875 263.062 89.125C262.812 89.0625 262.562 89.0625 262.312 89.125C261.375 88.0625 260.5 86.9375 259.688 85.75C258.938 84.5625 258.219 83.4375 257.531 82.375C257.469 80.0625 257.281 77.7188 256.969 75.3438C256.906 74.7812 256.812 74.2188 256.688 73.6562C256.562 73.0938 256.469 72.5625 256.406 72.0625C256.406 71.4375 256.438 70.8438 256.5 70.2812C256.625 69.6562 256.719 69.0938 256.781 68.5938C257.031 66.7812 257.312 65 257.625 63.25C257.938 61.5 258.219 59.7188 258.469 57.9062C258.719 56.2812 258.844 54.5938 258.844 52.8438C258.844 51.0312 258.562 49.3438 258 47.7812L257.906 47.3125C258.031 46.8125 258.156 46.4062 258.281 46.0938C258.469 45.7188 258.594 45.3125 258.656 44.875C258.781 44.1875 258.625 43.6875 258.188 43.375C258.375 42.875 258.688 42.5625 259.125 42.4375C259.562 42.25 259.812 41.875 259.875 41.3125C259.938 41.0625 259.938 40.8125 259.875 40.5625C260.375 40.375 260.875 40.2188 261.375 40.0938C261.938 39.9062 262.469 39.875 262.969 40C263.781 40.125 264.5 40.4062 265.125 40.8438C265.75 41.2188 266.344 41.6562 266.906 42.1562C267.906 45.1562 268.312 48.3438 268.125 51.7188C267.938 55.0312 267.625 58.375 267.188 61.75C266.75 65.125 266.469 68.4375 266.344 71.6875C266.219 74.875 266.719 77.8438 267.844 80.5938L268.031 80.6875C268.344 80.75 268.594 80.6562 268.781 80.4062C268.969 80.0938 269.219 79.9688 269.531 80.0312C269.781 80.1562 269.938 80.2188 270 80.2188C270.25 81.4688 270.656 82.6562 271.219 83.7812C271.781 84.9062 272.406 86.0312 273.094 87.1562ZM351.75 93.1562C351.562 94.0312 351.156 94.75 350.531 95.3125C349.969 95.8125 349.281 96.2188 348.469 96.5312C347.656 96.8438 346.812 97.0625 345.938 97.1875C345.125 97.25 344.375 97.2812 343.688 97.2812C343.375 97.2812 343.062 97.2812 342.75 97.2812C342.5 97.2188 342.219 97.1875 341.906 97.1875C341.594 97.1875 341.438 97.3438 341.438 97.6562C341.438 97.9688 341.281 98.1875 340.969 98.3125C340.656 98.1875 340.344 98.0938 340.031 98.0312C339.719 97.9688 339.406 97.9375 339.094 97.9375C338.656 97.9375 338.219 97.9688 337.781 98.0312C337.406 98.0938 337.031 98.125 336.656 98.125C336.156 98.125 335.781 98.0625 335.531 97.9375C335.344 97.8125 335.156 97.6875 334.969 97.5625C334.844 97.375 334.688 97.1875 334.5 97C334.375 96.8125 334.156 96.6562 333.844 96.5312C333.406 96.3438 333.031 96.3125 332.719 96.4375C332.469 96.5625 332.062 96.375 331.5 95.875C330.75 95.25 330.094 94.5 329.531 93.625C329.031 92.6875 328.531 91.7188 328.031 90.7188C327.531 89.7188 327 88.7188 326.438 87.7188C325.875 86.7188 325.219 85.8438 324.469 85.0938H323.719C322.594 85.0938 321.812 85.5625 321.375 86.5C321.062 86.3125 320.75 86.0938 320.438 85.8438C320.125 85.5312 319.781 85.2812 319.406 85.0938C317.969 85.5312 316.469 85.9062 314.906 86.2188C313.344 86.5312 311.781 86.6875 310.219 86.6875H308.906C308.531 86.6875 308.125 86.625 307.688 86.5C307.062 86.75 306.5 87.0625 306 87.4375C305.5 87.75 304.938 87.9062 304.312 87.9062C303.938 87.9062 303.5 87.7812 303 87.5312C302.625 87.5312 302.438 87.6875 302.438 88C302.5 88.3125 302.312 88.4688 301.875 88.4688H301.031C300.156 88.4688 299.281 88.5 298.406 88.5625C297.594 88.625 296.75 88.6562 295.875 88.6562C294.688 88.6562 293.469 88.5 292.219 88.1875C291.906 88.375 291.562 88.4688 291.188 88.4688C290.938 88.5938 290.75 88.8125 290.625 89.125C290.5 89.375 290.375 89.625 290.25 89.875C290.125 90.0625 289.938 90.25 289.688 90.4375C289.5 90.5625 289.219 90.5938 288.844 90.5312C288.719 91.2812 288.406 91.875 287.906 92.3125C287.406 92.75 287.156 93.4062 287.156 94.2812C286.469 94.6562 285.906 95.125 285.469 95.6875C285.031 96.25 284.594 96.8438 284.156 97.4688C283.719 98.0938 283.25 98.6875 282.75 99.25C282.312 99.8125 281.75 100.25 281.062 100.562C280.75 100.938 280.656 101.531 280.781 102.344C280.094 102.906 279.25 103.406 278.25 103.844C277.25 104.281 276.312 104.5 275.438 104.5C273.625 104.5 272.375 103.531 271.688 101.594C271.688 100.969 271.75 100.312 271.875 99.625C271.938 98.875 272.062 98.1875 272.25 97.5625C272.438 96.875 272.719 96.2812 273.094 95.7812C273.469 95.2188 274 94.8125 274.688 94.5625C274.688 94 274.5 93.625 274.125 93.4375C273.75 93.1875 273.594 92.7812 273.656 92.2188C275.344 91.4062 276.812 90.3438 278.062 89.0312C279.312 87.7188 280.438 86.3438 281.438 84.9062C282.5 83.4062 283.562 81.9062 284.625 80.4062C285.688 78.9062 286.875 77.5625 288.188 76.375V74.4062C290.062 72.4062 291.281 70.1562 291.844 67.6562C292.531 67.5312 292.969 67.2188 293.156 66.7188C293.406 66.2188 293.531 65.625 293.531 64.9375C293.844 64.9375 294.031 64.8125 294.094 64.5625C294.219 64.25 294.5 64.1562 294.938 64.2812C295.5 62.7812 296.125 61.4062 296.812 60.1562C297.5 58.9062 298.188 57.6562 298.875 56.4062C299.562 55.0938 300.156 53.75 300.656 52.375C301.219 51 301.625 49.4688 301.875 47.7812C302.75 47.7188 303.219 47.3125 303.281 46.5625C303.406 45.75 303.531 45.0312 303.656 44.4062C304.594 43.5312 305.281 42.5 305.719 41.3125C306.219 40.125 306.656 38.9062 307.031 37.6562C307.406 36.3438 307.812 35.0625 308.25 33.8125C308.75 32.5 309.438 31.3438 310.312 30.3438V30.0625C310.312 29.75 310.188 29.5625 309.938 29.5C309.688 29.375 309.562 29.1562 309.562 28.8438C309.625 28.7812 309.656 28.7188 309.656 28.6562C310.406 28.3438 310.969 27.8438 311.344 27.1562C311.719 26.4062 312.281 25.875 313.031 25.5625C314.344 26.625 315.5 27.2812 316.5 27.5312C317.5 27.7188 318.812 27.875 320.438 28C321.25 28.875 321.688 29.9375 321.75 31.1875C321.875 32.375 322.094 33.5625 322.406 34.75C322.906 36.75 323.438 38.7188 324 40.6562C324.625 42.5312 325.094 44.4688 325.406 46.4688C325.594 47.6562 325.938 48.7812 326.438 49.8438C326.938 50.9062 327.281 52 327.469 53.125C327.594 54 327.594 55 327.469 56.125C327.344 57.1875 327.469 58.125 327.844 58.9375L328.5 60.4375C328.812 61.125 329.062 61.8438 329.25 62.5938C329.5 63.3438 329.719 64.0938 329.906 64.8438C330.406 66.7188 330.844 68.75 331.219 70.9375C331.656 73.0625 332.312 75 333.188 76.75C333.5 77.375 333.969 77.8125 334.594 78.0625C335.281 78.3125 336.031 78.5 336.844 78.625C337.656 78.6875 338.438 78.7188 339.188 78.7188C340 78.6562 340.688 78.625 341.25 78.625H342.188C342.562 78.625 342.938 78.6875 343.312 78.8125C343.562 79.3125 343.688 79.75 343.688 80.125C343.688 80.875 343.438 81.4688 342.938 81.9062C342.438 82.3438 342.188 82.8438 342.188 83.4062C342.188 83.7188 342.312 84.0625 342.562 84.4375C342.312 84.375 341.938 84.3438 341.438 84.3438C340 84.3438 338.594 84.5938 337.219 85.0938C337.719 86.1562 338.375 87.0625 339.188 87.8125C340.062 88.5 340.969 89.1562 341.906 89.7812C342.531 89.2812 343.188 89.0312 343.875 89.0312C344.625 89.0312 345.312 89.2188 345.938 89.5938C346.625 89.9062 347.344 90.0625 348.094 90.0625C348.656 90.0625 349.062 89.9688 349.312 89.7812C349.812 90.3438 350.219 90.9375 350.531 91.5625C350.844 92.125 351.25 92.6562 351.75 93.1562ZM322.406 78.1562C322.281 77.0938 322.062 76.3438 321.75 75.9062C321.5 75.4062 321.281 74.8125 321.094 74.125C320.844 73.25 320.656 72.3125 320.531 71.3125C320.469 70.3125 320.344 69.3438 320.156 68.4062C319.719 66.2812 319.219 64.1562 318.656 62.0312C318.156 59.9062 317.5 57.8438 316.688 55.8438C316.938 55.4688 317.062 55.125 317.062 54.8125V54.5312C316.5 53.9062 316.094 53.1562 315.844 52.2812C315.594 51.3438 315.344 50.4375 315.094 49.5625C314.906 48.625 314.625 47.7812 314.25 47.0312C313.938 46.2188 313.406 45.5625 312.656 45.0625C312.469 45.4375 312.375 45.875 312.375 46.375C312.375 46.8125 312.406 47.2188 312.469 47.5938C312.594 47.9688 312.656 48.375 312.656 48.8125C312.031 49.125 311.562 49.625 311.25 50.3125C311 50.9375 310.562 51.4375 309.938 51.8125C309.438 53.8125 308.719 55.7188 307.781 57.5312C306.844 59.2812 305.844 61.0312 304.781 62.7812C303.781 64.5312 302.812 66.3125 301.875 68.125C300.938 69.875 300.188 71.7188 299.625 73.6562C298.812 74.2188 298.25 74.9375 297.938 75.8125C297.688 76.6875 297.562 77.5625 297.562 78.4375C298.125 78.75 298.75 78.9375 299.438 79C300.188 79 300.906 79 301.594 79C302.281 79 302.938 79.0625 303.562 79.1875C304.188 79.3125 304.75 79.625 305.25 80.125C306.062 79.875 306.938 79.7188 307.875 79.6562C308.875 79.5312 309.688 79.25 310.312 78.8125C311.562 79.25 312.906 79.4688 314.344 79.4688C315.094 79.4688 315.812 79.4062 316.5 79.2812C317.25 79.1562 317.969 79 318.656 78.8125C319.219 78.9375 319.656 79.1562 319.969 79.4688C320.281 79.7188 320.75 79.8125 321.375 79.75C321.688 79.5 321.875 79.25 321.938 79C322 78.6875 322.156 78.4062 322.406 78.1562ZM524.906 56.3125C524.781 57.0625 524.562 57.9062 524.25 58.8438C524 59.7812 523.625 60.6562 523.125 61.4688C522.688 62.2188 522.125 62.875 521.438 63.4375C520.75 63.9375 519.938 64.1875 519 64.1875C518.312 64.1875 517.625 64.125 516.938 64C516.25 63.8125 515.531 63.7188 514.781 63.7188C514.469 63.7188 514.125 63.8438 513.75 64.0938C513.438 64.2812 513.125 64.375 512.812 64.375C512.5 64.375 512.219 64.3438 511.969 64.2812C511.781 64.1562 511.531 64.0938 511.219 64.0938C511.031 64.0938 510.688 64.1562 510.188 64.2812C509.688 64.4062 509.156 64.5312 508.594 64.6562C508.031 64.7812 507.5 64.9375 507 65.125C506.5 65.25 506.156 65.3438 505.969 65.4062C504.281 65.9688 502.594 66.4688 500.906 66.9062C499.219 67.3438 497.469 67.625 495.656 67.75C495.281 67.625 494.719 67.5 493.969 67.375C493.219 67.1875 492.656 67.0938 492.281 67.0938C491.531 67.0938 491.031 67.4062 490.781 68.0312C490.594 68.6562 490.188 69.125 489.562 69.4375C488.812 69.875 487.875 70.125 486.75 70.1875C485.625 70.25 484.5 70.3438 483.375 70.4688C482.25 70.5938 481.188 70.8438 480.188 71.2188C479.25 71.5312 478.562 72.1562 478.125 73.0938C477.812 73.0312 477.469 73 477.094 73C476.781 72.9375 476.438 72.9062 476.062 72.9062C474.062 72.9062 472.188 73.3125 470.438 74.125C468.688 74.875 466.906 75.5625 465.094 76.1875C465.406 76.75 465.625 77.4375 465.75 78.25C465.875 79.0625 466 79.875 466.125 80.6875C466.25 81.4375 466.406 82.1875 466.594 82.9375C466.844 83.625 467.25 84.1562 467.812 84.5312C467.812 84.9062 467.719 85.2188 467.531 85.4688C467.406 85.7188 467.25 85.9375 467.062 86.125L466.406 86.7812C466.219 86.9688 466.094 87.25 466.031 87.625C465.844 88.375 465.75 89.1562 465.75 89.9688C465.75 90.7188 465.312 91.2812 464.438 91.6562C464.5 91.8438 464.531 92.1875 464.531 92.6875C464.531 93.3125 464.438 93.9062 464.25 94.4688C464.062 95.0312 464 95.6562 464.062 96.3438C463 97.5312 462.094 98.75 461.344 100C460.656 101.25 460.125 102.594 459.75 104.031C457.438 106.344 455.062 108.656 452.625 110.969C450.25 113.344 447.781 115.625 445.219 117.812C442.719 120 440.125 122.062 437.438 124C434.75 126 431.969 127.75 429.094 129.25H428.438C427 129.25 425.875 129.5 425.062 130C424.25 130.5 423.219 130.938 421.969 131.312C421.031 131.062 419.906 130.938 418.594 130.938C417.844 130.938 417.062 130.969 416.25 131.031C415.5 131.094 414.719 131.125 413.906 131.125C412.844 131.125 411.875 131 411 130.75C410.188 130.5 409.375 130.219 408.562 129.906C407.812 129.594 407.031 129.281 406.219 128.969C405.406 128.656 404.531 128.438 403.594 128.312C399.719 124.438 396.656 119.906 394.406 114.719C392.156 109.594 391.031 104.312 391.031 98.875C391.031 96.375 391.375 93.9375 392.062 91.5625C392.75 89.125 393.094 86.6875 393.094 84.25C394.219 82 395.188 79.6875 396 77.3125C396.875 74.9375 397.75 72.5625 398.625 70.1875C399.5 67.8125 400.438 65.5 401.438 63.25C402.5 60.9375 403.75 58.75 405.188 56.6875C405.5 55.0625 406 53.6562 406.688 52.4688C407.375 51.2812 408.125 49.9688 408.938 48.5312C408.938 47.1562 409.219 45.9062 409.781 44.7812C410.406 43.5938 410.781 42.2812 410.906 40.8438C411.906 39.9062 412.719 38.8438 413.344 37.6562C413.969 36.4688 414.562 35.25 415.125 34C415.688 32.75 416.312 31.5625 417 30.4375C417.75 29.25 418.75 28.25 420 27.4375C420.125 27 420.188 26.5312 420.188 26.0312C420.25 25.4688 420.406 25.0312 420.656 24.7188L422.625 22.5625C423.25 21.75 423.812 20.9375 424.312 20.125C424.875 19.25 425.469 18.4688 426.094 17.7812C426.469 17.4062 426.875 17.0938 427.312 16.8438C427.75 16.5938 428.125 16.3125 428.438 16C428.75 15.6875 428.844 15.2812 428.719 14.7812C428.656 14.2812 428.781 13.875 429.094 13.5625C429.219 13.4375 429.406 13.3125 429.656 13.1875C429.906 13.0625 430.125 12.9375 430.312 12.8125C431.125 12.25 431.812 11.6875 432.375 11.125C432.938 10.5625 433.719 10.1562 434.719 9.90625C435.594 9.21875 436.375 8.53125 437.062 7.84375C437.812 7.15625 438.562 6.53125 439.312 5.96875C440.062 5.40625 440.875 4.96875 441.75 4.65625C442.625 4.28125 443.719 4.09375 445.031 4.09375C445.281 4.09375 445.531 4.125 445.781 4.1875C446.031 4.1875 446.281 4.1875 446.531 4.1875C449.094 6.5625 450.688 9.46875 451.312 12.9062C450.625 13.7812 450.062 14.7188 449.625 15.7188C449.25 16.7188 448.812 17.7188 448.312 18.7188C447.25 19.0938 446.25 19.6562 445.312 20.4062C444.375 21.0938 443.438 21.8125 442.5 22.5625C441.625 23.3125 440.688 23.9688 439.688 24.5312C438.75 25.0938 437.688 25.375 436.5 25.375C436 25.8125 435.188 26.5312 434.062 27.5312C433 28.4688 431.875 29.4688 430.688 30.5312C429.562 31.5938 428.5 32.5938 427.5 33.5312C426.562 34.4688 425.969 35.125 425.719 35.5C425.531 35.8125 425.375 36.0938 425.25 36.3438C425.125 36.5938 425 36.875 424.875 37.1875L422.438 41.3125C421.062 43.6875 419.656 46.0312 418.219 48.3438C416.781 50.5938 415.531 52.9688 414.469 55.4688C413.969 56.5938 413.562 57.7188 413.25 58.8438C412.938 59.9688 412.625 61.1562 412.312 62.4062C412.188 62.7812 412.031 63.1562 411.844 63.5312C411.656 63.9062 411.5 64.25 411.375 64.5625C410.688 65.875 410.125 67.0938 409.688 68.2188C409.25 69.3438 409 70.6562 408.938 72.1562C407.375 75.6562 405.906 79.1875 404.531 82.75C403.219 86.25 402.219 89.875 401.531 93.625C401.906 94.875 402.062 96.1562 402 97.4688C402 98.7188 402 99.9688 402 101.219C402 102.781 402.094 104.062 402.281 105.062C402.531 106.125 402.844 107.062 403.219 107.875C403.656 108.75 404.125 109.625 404.625 110.5C405.125 111.438 405.656 112.531 406.219 113.781C407.156 114.531 408 115.312 408.75 116.125C409.5 117 410.219 117.938 410.906 118.938C413.281 120.125 415.688 120.719 418.125 120.719C419.875 120.719 421.656 120.438 423.469 119.875C425.281 119.312 427.031 118.594 428.719 117.719C430.469 116.906 432.156 116 433.781 115C435.406 114 436.969 113.031 438.469 112.094C441.094 110.531 443.375 108.844 445.312 107.031C447.25 105.219 449 103.312 450.562 101.312C452.188 99.3125 453.688 97.1875 455.062 94.9375C456.438 92.625 457.875 90.1875 459.375 87.625C459.438 87.3125 459.562 86.9375 459.75 86.5L460.312 85.0938C460.5 84.5938 460.656 84.1562 460.781 83.7812C460.969 83.3438 461.062 83.0625 461.062 82.9375C461.062 82.4375 460.938 82.0938 460.688 81.9062C460.5 81.6562 460.406 81.4062 460.406 81.1562C460.406 80.6562 460.531 80.3125 460.781 80.125C461.031 79.9375 461.312 79.75 461.625 79.5625C462 79.375 462.312 79.1562 462.562 78.9062C462.875 78.6562 463.031 78.1875 463.031 77.5C462.906 77.4375 462.688 77.4062 462.375 77.4062C462.062 77.4062 461.75 77.4375 461.438 77.5C461.125 77.5625 460.812 77.5938 460.5 77.5938C459.75 77.5938 459.125 77.3438 458.625 76.8438C458.312 76.9688 458 77.1875 457.688 77.5C457.375 77.75 457.062 78.0312 456.75 78.3438C456.5 78.6562 456.25 78.9375 456 79.1875C455.75 79.4375 455.531 79.5625 455.344 79.5625C455.031 79.5625 454.781 79.5 454.594 79.375C454.469 79.25 454.281 79.1875 454.031 79.1875C452.969 79.1875 452.031 79.4375 451.219 79.9375C450.406 80.4375 449.531 80.8438 448.594 81.1562C448.406 81.1562 448.219 81.1562 448.031 81.1562C447.844 81.0938 447.656 81.0625 447.469 81.0625C446.781 81.0625 446.094 81.1875 445.406 81.4375C444.781 81.625 444.156 81.8438 443.531 82.0938C442.969 82.3438 442.375 82.5625 441.75 82.75C441.125 82.9375 440.5 83 439.875 82.9375C438.5 83.4375 437.219 83.9688 436.031 84.5312C434.906 85.0938 433.594 85.3125 432.094 85.1875C431.656 85.375 431.188 85.5938 430.688 85.8438C430.25 86.0312 429.812 86.2812 429.375 86.5938C429 86.7188 428.719 86.7812 428.531 86.7812C428.219 86.7812 427.969 86.625 427.781 86.3125C427.281 86.875 426.625 87.2812 425.812 87.5312C425 87.7188 424.156 87.9062 423.281 88.0938C422.406 88.2188 421.562 88.4062 420.75 88.6562C420 88.8438 419.406 89.25 418.969 89.875C418.281 89.3125 417.469 89.0312 416.531 89.0312C415.594 89.0312 414.688 89.2188 413.812 89.5938C412.938 89.9062 412 90.0625 411 90.0625C410.625 90.0625 410.375 90 410.25 89.875C410 89.1875 409.719 88.5 409.406 87.8125C409.094 87.125 408.594 86.625 407.906 86.3125C407.781 85.625 407.656 84.9688 407.531 84.3438C407.469 83.6562 407.438 83 407.438 82.375C407.438 80.6875 407.938 79.1562 408.938 77.7812C409.812 77.4688 410.688 77.2188 411.562 77.0312C412.5 76.7812 413.406 76.5 414.281 76.1875C414.969 76.3125 415.656 76.4062 416.344 76.4688C417.031 76.5312 417.719 76.5625 418.406 76.5625C420.969 76.5625 423.469 76.25 425.906 75.625C428.344 74.9375 430.75 74.2188 433.125 73.4688C435.375 72.7812 437.656 72.1562 439.969 71.5938C442.281 71.0312 444.594 70.4062 446.906 69.7188C449.094 69.1562 451.25 68.5312 453.375 67.8438C455.5 67.0938 457.719 66.625 460.031 66.4375C461.531 65.375 463.344 64.6562 465.469 64.2812C467.656 63.9062 469.656 63.5 471.469 63.0625C474.344 62.375 477.188 61.6875 480 61C482.812 60.25 485.688 59.5938 488.625 59.0312C491.875 58.3438 495.031 57.5 498.094 56.5C501.219 55.5 504.344 54.4375 507.469 53.3125H508.406C509.469 53.3125 510.562 53.1875 511.688 52.9375C512.812 52.6875 513.938 52.5625 515.062 52.5625C515.375 52.5625 515.625 52.5938 515.812 52.6562C516.062 52.6562 516.312 52.6562 516.562 52.6562C516.75 52.6562 517.219 52.5312 517.969 52.2812C518.719 51.9688 519.25 51.75 519.562 51.625C520.375 52.5 521.281 53.2812 522.281 53.9688C523.281 54.6562 524.156 55.4375 524.906 56.3125ZM554.625 93.1562C554.438 94.0312 554.031 94.75 553.406 95.3125C552.844 95.8125 552.156 96.2188 551.344 96.5312C550.531 96.8438 549.688 97.0625 548.812 97.1875C548 97.25 547.25 97.2812 546.562 97.2812C546.25 97.2812 545.938 97.2812 545.625 97.2812C545.375 97.2188 545.094 97.1875 544.781 97.1875C544.469 97.1875 544.312 97.3438 544.312 97.6562C544.312 97.9688 544.156 98.1875 543.844 98.3125C543.531 98.1875 543.219 98.0938 542.906 98.0312C542.594 97.9688 542.281 97.9375 541.969 97.9375C541.531 97.9375 541.094 97.9688 540.656 98.0312C540.281 98.0938 539.906 98.125 539.531 98.125C539.031 98.125 538.656 98.0625 538.406 97.9375C538.219 97.8125 538.031 97.6875 537.844 97.5625C537.719 97.375 537.562 97.1875 537.375 97C537.25 96.8125 537.031 96.6562 536.719 96.5312C536.281 96.3438 535.906 96.3125 535.594 96.4375C535.344 96.5625 534.938 96.375 534.375 95.875C533.625 95.25 532.969 94.5 532.406 93.625C531.906 92.6875 531.406 91.7188 530.906 90.7188C530.406 89.7188 529.875 88.7188 529.312 87.7188C528.75 86.7188 528.094 85.8438 527.344 85.0938H526.594C525.469 85.0938 524.688 85.5625 524.25 86.5C523.938 86.3125 523.625 86.0938 523.312 85.8438C523 85.5312 522.656 85.2812 522.281 85.0938C520.844 85.5312 519.344 85.9062 517.781 86.2188C516.219 86.5312 514.656 86.6875 513.094 86.6875H511.781C511.406 86.6875 511 86.625 510.562 86.5C509.938 86.75 509.375 87.0625 508.875 87.4375C508.375 87.75 507.812 87.9062 507.188 87.9062C506.812 87.9062 506.375 87.7812 505.875 87.5312C505.5 87.5312 505.312 87.6875 505.312 88C505.375 88.3125 505.188 88.4688 504.75 88.4688H503.906C503.031 88.4688 502.156 88.5 501.281 88.5625C500.469 88.625 499.625 88.6562 498.75 88.6562C497.562 88.6562 496.344 88.5 495.094 88.1875C494.781 88.375 494.438 88.4688 494.062 88.4688C493.812 88.5938 493.625 88.8125 493.5 89.125C493.375 89.375 493.25 89.625 493.125 89.875C493 90.0625 492.812 90.25 492.562 90.4375C492.375 90.5625 492.094 90.5938 491.719 90.5312C491.594 91.2812 491.281 91.875 490.781 92.3125C490.281 92.75 490.031 93.4062 490.031 94.2812C489.344 94.6562 488.781 95.125 488.344 95.6875C487.906 96.25 487.469 96.8438 487.031 97.4688C486.594 98.0938 486.125 98.6875 485.625 99.25C485.188 99.8125 484.625 100.25 483.938 100.562C483.625 100.938 483.531 101.531 483.656 102.344C482.969 102.906 482.125 103.406 481.125 103.844C480.125 104.281 479.188 104.5 478.312 104.5C476.5 104.5 475.25 103.531 474.562 101.594C474.562 100.969 474.625 100.312 474.75 99.625C474.812 98.875 474.938 98.1875 475.125 97.5625C475.312 96.875 475.594 96.2812 475.969 95.7812C476.344 95.2188 476.875 94.8125 477.562 94.5625C477.562 94 477.375 93.625 477 93.4375C476.625 93.1875 476.469 92.7812 476.531 92.2188C478.219 91.4062 479.688 90.3438 480.938 89.0312C482.188 87.7188 483.312 86.3438 484.312 84.9062C485.375 83.4062 486.438 81.9062 487.5 80.4062C488.562 78.9062 489.75 77.5625 491.062 76.375V74.4062C492.938 72.4062 494.156 70.1562 494.719 67.6562C495.406 67.5312 495.844 67.2188 496.031 66.7188C496.281 66.2188 496.406 65.625 496.406 64.9375C496.719 64.9375 496.906 64.8125 496.969 64.5625C497.094 64.25 497.375 64.1562 497.812 64.2812C498.375 62.7812 499 61.4062 499.688 60.1562C500.375 58.9062 501.062 57.6562 501.75 56.4062C502.438 55.0938 503.031 53.75 503.531 52.375C504.094 51 504.5 49.4688 504.75 47.7812C505.625 47.7188 506.094 47.3125 506.156 46.5625C506.281 45.75 506.406 45.0312 506.531 44.4062C507.469 43.5312 508.156 42.5 508.594 41.3125C509.094 40.125 509.531 38.9062 509.906 37.6562C510.281 36.3438 510.688 35.0625 511.125 33.8125C511.625 32.5 512.312 31.3438 513.188 30.3438V30.0625C513.188 29.75 513.062 29.5625 512.812 29.5C512.562 29.375 512.438 29.1562 512.438 28.8438C512.5 28.7812 512.531 28.7188 512.531 28.6562C513.281 28.3438 513.844 27.8438 514.219 27.1562C514.594 26.4062 515.156 25.875 515.906 25.5625C517.219 26.625 518.375 27.2812 519.375 27.5312C520.375 27.7188 521.688 27.875 523.312 28C524.125 28.875 524.562 29.9375 524.625 31.1875C524.75 32.375 524.969 33.5625 525.281 34.75C525.781 36.75 526.312 38.7188 526.875 40.6562C527.5 42.5312 527.969 44.4688 528.281 46.4688C528.469 47.6562 528.812 48.7812 529.312 49.8438C529.812 50.9062 530.156 52 530.344 53.125C530.469 54 530.469 55 530.344 56.125C530.219 57.1875 530.344 58.125 530.719 58.9375L531.375 60.4375C531.688 61.125 531.938 61.8438 532.125 62.5938C532.375 63.3438 532.594 64.0938 532.781 64.8438C533.281 66.7188 533.719 68.75 534.094 70.9375C534.531 73.0625 535.188 75 536.062 76.75C536.375 77.375 536.844 77.8125 537.469 78.0625C538.156 78.3125 538.906 78.5 539.719 78.625C540.531 78.6875 541.312 78.7188 542.062 78.7188C542.875 78.6562 543.562 78.625 544.125 78.625H545.062C545.438 78.625 545.812 78.6875 546.188 78.8125C546.438 79.3125 546.562 79.75 546.562 80.125C546.562 80.875 546.312 81.4688 545.812 81.9062C545.312 82.3438 545.062 82.8438 545.062 83.4062C545.062 83.7188 545.188 84.0625 545.438 84.4375C545.188 84.375 544.812 84.3438 544.312 84.3438C542.875 84.3438 541.469 84.5938 540.094 85.0938C540.594 86.1562 541.25 87.0625 542.062 87.8125C542.938 88.5 543.844 89.1562 544.781 89.7812C545.406 89.2812 546.062 89.0312 546.75 89.0312C547.5 89.0312 548.188 89.2188 548.812 89.5938C549.5 89.9062 550.219 90.0625 550.969 90.0625C551.531 90.0625 551.938 89.9688 552.188 89.7812C552.688 90.3438 553.094 90.9375 553.406 91.5625C553.719 92.125 554.125 92.6562 554.625 93.1562ZM525.281 78.1562C525.156 77.0938 524.938 76.3438 524.625 75.9062C524.375 75.4062 524.156 74.8125 523.969 74.125C523.719 73.25 523.531 72.3125 523.406 71.3125C523.344 70.3125 523.219 69.3438 523.031 68.4062C522.594 66.2812 522.094 64.1562 521.531 62.0312C521.031 59.9062 520.375 57.8438 519.562 55.8438C519.812 55.4688 519.938 55.125 519.938 54.8125V54.5312C519.375 53.9062 518.969 53.1562 518.719 52.2812C518.469 51.3438 518.219 50.4375 517.969 49.5625C517.781 48.625 517.5 47.7812 517.125 47.0312C516.812 46.2188 516.281 45.5625 515.531 45.0625C515.344 45.4375 515.25 45.875 515.25 46.375C515.25 46.8125 515.281 47.2188 515.344 47.5938C515.469 47.9688 515.531 48.375 515.531 48.8125C514.906 49.125 514.438 49.625 514.125 50.3125C513.875 50.9375 513.438 51.4375 512.812 51.8125C512.312 53.8125 511.594 55.7188 510.656 57.5312C509.719 59.2812 508.719 61.0312 507.656 62.7812C506.656 64.5312 505.688 66.3125 504.75 68.125C503.812 69.875 503.062 71.7188 502.5 73.6562C501.688 74.2188 501.125 74.9375 500.812 75.8125C500.562 76.6875 500.438 77.5625 500.438 78.4375C501 78.75 501.625 78.9375 502.312 79C503.062 79 503.781 79 504.469 79C505.156 79 505.812 79.0625 506.438 79.1875C507.062 79.3125 507.625 79.625 508.125 80.125C508.938 79.875 509.812 79.7188 510.75 79.6562C511.75 79.5312 512.562 79.25 513.188 78.8125C514.438 79.25 515.781 79.4688 517.219 79.4688C517.969 79.4688 518.688 79.4062 519.375 79.2812C520.125 79.1562 520.844 79 521.531 78.8125C522.094 78.9375 522.531 79.1562 522.844 79.4688C523.156 79.7188 523.625 79.8125 524.25 79.75C524.562 79.5 524.75 79.25 524.812 79C524.875 78.6875 525.031 78.4062 525.281 78.1562ZM644.062 88.1875C643.75 89.1875 643.656 90.1875 643.781 91.1875C643.594 91.4375 643.375 91.5938 643.125 91.6562C642.875 91.7188 642.625 91.8125 642.375 91.9375C642.125 92 641.906 92.125 641.719 92.3125C641.594 92.4375 641.594 92.7188 641.719 93.1562C639.656 93.2812 637.688 93.7188 635.812 94.4688C633.938 95.2188 632.094 96.0312 630.281 96.9062C629.344 96.5938 628.531 96.2188 627.844 95.7812C627.156 95.3438 626.281 95.0625 625.219 94.9375C624.156 92.8125 623.156 90.5938 622.219 88.2812C621.344 85.9062 620.906 83.5312 620.906 81.1562C620.906 79.4062 621.219 77.8125 621.844 76.375C621.844 74.5 622 72.6562 622.312 70.8438C622.625 69.0312 622.969 67.25 623.344 65.5C623.781 63.6875 624.156 61.875 624.469 60.0625C624.781 58.25 624.938 56.4062 624.938 54.5312V52.4688C624.812 52.4688 624.656 52.625 624.469 52.9375C624.281 53.1875 624.094 53.5 623.906 53.875C623.781 54.1875 623.656 54.5 623.531 54.8125C623.406 55.125 623.312 55.3125 623.25 55.375C622.188 56.1875 621.344 57.2188 620.719 58.4688C620.156 59.6562 619.531 60.7812 618.844 61.8438C617.969 63.1562 617.031 64.4375 616.031 65.6875C615.094 66.9375 613.906 67.9062 612.469 68.5938V68.7812C612.469 69.0938 612.375 69.3125 612.188 69.4375C612 69.5625 611.969 69.875 612.094 70.375C610.531 70.875 609.062 71.5938 607.688 72.5312C606.375 73.4688 605.281 74.6562 604.406 76.0938C603.156 76.4062 601.969 76.8438 600.844 77.4062C599.781 77.9062 598.688 78.4688 597.562 79.0938C597.062 79.3438 596.531 79.6562 595.969 80.0312C595.406 80.4062 594.844 80.6562 594.281 80.7812C593.781 80.9688 593.094 81.0938 592.219 81.1562C591.406 81.2188 590.531 81.2812 589.594 81.3438C588.719 81.4062 587.844 81.4375 586.969 81.4375H584.906C584.594 81.4375 584.188 81.2812 583.688 80.9688C583.188 80.6562 582.625 80.3125 582 79.9375C581.438 79.5625 580.844 79.2188 580.219 78.9062C579.594 78.5312 579 78.2812 578.438 78.1562C577.938 76.5312 577.219 75.0938 576.281 73.8438C575.406 72.5312 574.469 71.2188 573.469 69.9062C573.156 68.4062 572.719 66.8438 572.156 65.2188C571.656 63.5938 570.75 62.25 569.438 61.1875C569.75 60.75 569.906 60.25 569.906 59.6875C569.906 59 569.75 58.3438 569.438 57.7188C569.125 57.0938 568.969 56.4062 568.969 55.6562C568.969 55.1562 569 54.7812 569.062 54.5312C568.375 55.2812 567.875 56.25 567.562 57.4375C567.312 58.5625 567.188 59.5938 567.188 60.5312C567.188 61.2812 567.281 61.9688 567.469 62.5938C566.844 63.4688 566.438 64.5625 566.25 65.875C566.125 67.1875 566.062 68.3438 566.062 69.3438C566.062 70.5938 566.156 71.8125 566.344 73C565.344 74 564.844 75.2188 564.844 76.6562C564.844 77.4688 565.031 78.1875 565.406 78.8125C565.406 79.0625 565.344 79.25 565.219 79.375C565.094 79.5 564.938 79.5938 564.75 79.6562C564.625 79.7188 564.469 79.8125 564.281 79.9375C564.156 80 564.094 80.1562 564.094 80.4062C564.094 80.7188 564.094 81.0625 564.094 81.4375C564.156 81.8125 564.188 82.1875 564.188 82.5625C564.188 83.4375 564.156 84.3438 564.094 85.2812C564.031 86.2188 564 87.125 564 88C564 89.8125 564.156 91.125 564.469 91.9375C564.844 92.6875 565.281 93.25 565.781 93.625C566.344 94 566.938 94.375 567.562 94.75C568.188 95.125 568.812 95.8438 569.438 96.9062C569.25 97.4688 568.906 97.9375 568.406 98.3125C567.969 98.625 567.531 98.9688 567.094 99.3438C566.719 99.6562 566.375 100.031 566.062 100.469C565.75 100.906 565.625 101.531 565.688 102.344H565.219C564.406 102.344 563.625 102.469 562.875 102.719C562.125 102.969 561.344 103.094 560.531 103.094C560.344 103.094 560.156 103.062 559.969 103C559.781 103 559.594 103 559.406 103L558.469 102.438C558.156 102.25 557.844 102.156 557.531 102.156C557.219 102.156 556.812 102.219 556.312 102.344C555.438 99.5312 554.75 96.625 554.25 93.625C553.812 90.625 553.594 87.6875 553.594 84.8125C553.594 84.5 553.656 84.1875 553.781 83.875C553.969 83.5 554.219 83.375 554.531 83.5V81.7188C554.531 79.7812 554.688 77.9062 555 76.0938C555.375 74.2188 555.562 72.2812 555.562 70.2812C555.562 69.7188 555.531 69.1562 555.469 68.5938C555.469 68.0312 555.438 67.5 555.375 67C555.688 65.9375 556 64.875 556.312 63.8125C556.688 62.6875 556.875 61.5312 556.875 60.3438C556.875 59.8438 556.781 59.25 556.594 58.5625C557.094 58.1875 557.469 57.7188 557.719 57.1562C557.969 56.5312 558.156 55.875 558.281 55.1875C558.406 54.4375 558.5 53.7188 558.562 53.0312C558.625 52.3438 558.688 51.7188 558.75 51.1562C559.375 49.9062 559.719 48.5625 559.781 47.125C559.844 45.6875 560.156 44.3438 560.719 43.0938C560.656 42.8438 560.625 42.4062 560.625 41.7812C560.625 40.5312 560.812 39.2812 561.188 38.0312C561.625 36.7188 562.469 35.7188 563.719 35.0312C564.844 35.4688 566.156 35.6875 567.656 35.6875C569.094 35.6875 570.469 35.4688 571.781 35.0312C572.156 35.1562 572.5 35.3125 572.812 35.5C573.125 35.625 573.438 35.7812 573.75 35.9688C574.125 36.0938 574.5 36.2188 574.875 36.3438C575.25 36.4062 575.688 36.4062 576.188 36.3438C576.812 38.1562 577.344 40 577.781 41.875C578.281 43.75 578.656 45.6562 578.906 47.5938C579.031 48.4062 579.062 49.2812 579 50.2188C579 51.1562 579.062 52.0312 579.188 52.8438C579.25 53.3438 579.406 53.8125 579.656 54.25C579.906 54.625 580.156 55.0625 580.406 55.5625C580.656 56.0625 580.844 56.625 580.969 57.25C581.156 57.875 581.219 58.6562 581.156 59.5938C581.844 61.2188 582.594 62.7812 583.406 64.2812C584.281 65.7188 585.219 67.1562 586.219 68.5938C586.781 68.7812 587.281 69.0312 587.719 69.3438C588.156 69.5938 588.438 70.0312 588.562 70.6562C589.125 70.6562 589.625 70.75 590.062 70.9375L591.656 71.4062C594.031 70.6562 596.219 69.6562 598.219 68.4062C600.281 67.1562 602.438 66.0938 604.688 65.2188C607.438 62.5312 609.812 59.5625 611.812 56.3125C613.812 53 615.812 49.7188 617.812 46.4688V44.4062C618.188 44.2188 618.5 44 618.75 43.75C619.062 43.4375 619.438 43.2188 619.875 43.0938C619.938 42.3438 620.094 41.625 620.344 40.9375C620.656 40.1875 620.969 39.5 621.281 38.875C621.656 38.1875 621.969 37.5312 622.219 36.9062C622.469 36.2188 622.594 35.5 622.594 34.75C622.594 34.3125 622.562 33.9375 622.5 33.625C623.438 32.6875 624.562 32.2188 625.875 32.2188C627.125 32.2188 628.375 32.5312 629.625 33.1562C630.938 33.7188 632.156 34.25 633.281 34.75C633.969 36.25 634.469 37.8438 634.781 39.5312C635.156 41.1562 635.406 42.8438 635.531 44.5938C635.656 46.3438 635.719 48.0938 635.719 49.8438V56.5C635.656 57 635.469 57.375 635.156 57.625C634.906 57.8125 634.719 58.125 634.594 58.5625V59.5C634.594 59.8125 634.562 60.125 634.5 60.4375C634.5 61.75 634.344 63.125 634.031 64.5625C633.719 66.375 633.312 68.2188 632.812 70.0938C632.375 71.9062 632.156 73.75 632.156 75.625C632.156 76.3125 632.188 77 632.25 77.6875C632.312 78.375 632.438 79.0625 632.625 79.75C632.312 80.3125 632.156 81.0312 632.156 81.9062C632.156 82.9062 632.312 83.8438 632.625 84.7188C633 85.5312 633.438 86.3438 633.938 87.1562C634.812 87.1562 635.688 87.125 636.562 87.0625C637.438 87 638.344 86.9688 639.281 86.9688C640.156 86.9688 640.969 87.0625 641.719 87.25C642.469 87.375 643.25 87.6875 644.062 88.1875ZM706.5 40.375V40.75C706.062 40.875 705.844 41.1875 705.844 41.6875C705.156 42 704.438 42.25 703.688 42.4375C702.938 42.5625 702.219 42.7812 701.531 43.0938C700.844 43.0312 700.125 43 699.375 43C698.688 42.9375 698 42.9062 697.312 42.9062C695.438 42.9062 693.562 42.9688 691.688 43.0938C689.812 43.2188 687.938 43.2188 686.062 43.0938C685.188 43.5938 684.219 44 683.156 44.3125C682.156 44.5625 681.188 44.6875 680.25 44.6875C679.5 44.6875 678.844 44.5938 678.281 44.4062C676.781 45.1562 675.125 45.7812 673.312 46.2812C671.562 46.7812 669.781 47.2812 667.969 47.7812C666.156 48.2188 664.406 48.75 662.719 49.375C661.094 49.9375 659.656 50.75 658.406 51.8125C658.281 52.6875 658.188 53.5625 658.125 54.4375C658.062 55.25 658.031 56.0625 658.031 56.875C658.031 57.75 658.062 58.5625 658.125 59.3125C658.25 60.0625 658.469 60.8125 658.781 61.5625C659.094 61.6875 659.438 61.7812 659.812 61.8438C660.25 61.9062 660.625 61.9375 660.938 61.9375C661.25 61.9375 661.562 61.9062 661.875 61.8438C662.188 61.7188 662.406 61.5 662.531 61.1875C663.469 61.0625 664.406 61.0312 665.344 61.0938C666.281 61.0938 667.219 61.0938 668.156 61.0938C669.094 61.0938 670 61.0625 670.875 61C671.812 60.9375 672.719 60.7812 673.594 60.5312C674.594 60.2812 675.562 60.125 676.5 60.0625C677.5 60 678.469 59.9375 679.406 59.875C680.344 59.8125 681.312 59.7188 682.312 59.5938C683.312 59.4062 684.344 59.0625 685.406 58.5625C686.219 58.875 687.031 59.0312 687.844 59.0312C688.719 59.0312 689.562 59.0938 690.375 59.2188C690.812 59.5312 691.156 59.875 691.406 60.25C691.719 60.625 691.875 61.0625 691.875 61.5625C691.875 62.4375 691.562 63.3125 690.938 64.1875C690.312 65.0625 689.812 65.875 689.438 66.625H688.406C686.906 66.625 685.438 66.8438 684 67.2812C682.625 67.6562 681.219 68.125 679.781 68.6875C678.406 69.1875 677 69.6562 675.562 70.0938C674.188 70.4688 672.75 70.6562 671.25 70.6562C671 70.6562 670.844 70.8125 670.781 71.125C670.781 71.375 670.719 71.5625 670.594 71.6875C670.281 71.625 669.812 71.5938 669.188 71.5938C667.75 71.5938 666.375 71.75 665.062 72.0625C663.75 72.375 662.406 72.5312 661.031 72.5312C660.656 72.5312 660.281 72.5312 659.906 72.5312C659.531 72.4688 659.156 72.4062 658.781 72.3438C658.469 72.8438 658.062 73.1875 657.562 73.375C657.062 73.5 656.594 73.75 656.156 74.125C655.969 74.6875 655.844 75.375 655.781 76.1875C655.781 77 655.75 77.8438 655.688 78.7188C655.688 79.5312 655.625 80.3125 655.5 81.0625C655.375 81.8125 655.125 82.4062 654.75 82.8438C654.812 83.1562 655.062 83.2812 655.5 83.2188C655.938 83.0938 656.156 83.2812 656.156 83.7812C656.156 84.3438 656.094 84.9375 655.969 85.5625C655.844 86.1875 655.781 86.8125 655.781 87.4375C655.781 88.625 655.906 89.9375 656.156 91.375C656.469 92.75 656.906 94.0312 657.469 95.2188C658.094 96.4062 658.906 97.4062 659.906 98.2188C660.906 98.9688 662.156 99.3438 663.656 99.3438C664.656 99.3438 665.594 99.1562 666.469 98.7812C667.344 98.4062 668.062 97.7812 668.625 96.9062L669.094 96.8125C669.344 96.8125 669.562 96.8438 669.75 96.9062C670 96.9688 670.25 97 670.5 97C670.875 97 671.344 96.7812 671.906 96.3438C672.531 95.8438 673.188 95.2812 673.875 94.6562C674.625 94.0312 675.375 93.4375 676.125 92.875C676.875 92.25 677.594 91.8125 678.281 91.5625C678.719 90.6875 679.125 89.8125 679.5 88.9375C679.938 88.0625 680.562 87.375 681.375 86.875V84.1562C682 83.4688 682.656 82.8438 683.344 82.2812C684.094 81.7188 684.656 81 685.031 80.125C685.344 80.25 685.625 80.3438 685.875 80.4062C686.188 80.4688 686.5 80.5 686.812 80.5C687.125 80.5 687.438 80.4688 687.75 80.4062C688.125 80.3438 688.469 80.25 688.781 80.125C689.281 80.8125 689.656 81.5938 689.906 82.4688C690.219 83.2812 690.594 84.0625 691.031 84.8125C690.469 85.9375 689.812 87.2812 689.062 88.8438C688.312 90.4062 687.5 91.9688 686.625 93.5312C685.75 95.0938 684.812 96.5938 683.812 98.0312C682.875 99.4062 681.938 100.469 681 101.219C680.812 101.406 680.406 101.625 679.781 101.875C679.094 102.375 678.469 102.844 677.906 103.281C677.344 103.781 676.812 104.344 676.312 104.969C674.5 105.531 672.75 106.281 671.062 107.219C669.438 108.156 667.812 109.062 666.188 109.938C665.438 109.75 664.625 109.656 663.75 109.656C663 109.656 662.25 109.688 661.5 109.75C660.75 109.875 659.938 109.938 659.062 109.938C658.812 109.625 658.438 109.406 657.938 109.281C657.5 109.219 657.344 108.906 657.469 108.344C655.344 108.219 653.625 107.625 652.312 106.562C651 105.562 649.875 104.312 648.938 102.812C648.062 101.312 647.344 99.6875 646.781 97.9375C646.219 96.1875 645.625 94.5 645 92.875V92.5938C645 92.2812 645.125 92.0938 645.375 92.0312C645.625 91.9688 645.75 91.7812 645.75 91.4688C645.75 91.3438 645.719 91.25 645.656 91.1875C645.469 90.5 645.312 89.9062 645.188 89.4062C645.062 88.9062 645 88.3125 645 87.625C645 86.625 645.062 85.6562 645.188 84.7188C645.312 83.7188 645.375 82.7188 645.375 81.7188C645.375 80.7188 645.25 79.8438 645 79.0938C645.25 78.7812 645.469 78.375 645.656 77.875C645.781 77.3125 645.875 76.75 645.938 76.1875C646 75.625 646.031 75.0625 646.031 74.5C646.094 73.9375 646.188 73.4375 646.312 73C646.062 72.3125 645.844 71.7188 645.656 71.2188C645.469 70.6562 645.375 70 645.375 69.25V68.5938C646 67.5312 646.531 66.4375 646.969 65.3125C647.406 64.1875 647.875 63.0312 648.375 61.8438V61.5625C648.375 59.75 648.312 57.9375 648.188 56.125C648.062 54.3125 648 52.5 648 50.6875V48.9062C648 48.2812 648.031 47.6875 648.094 47.125C648.594 46.875 648.969 46.5312 649.219 46.0938C649.469 45.6562 649.844 45.3125 650.344 45.0625H653.438L654 44.125C654.188 43.8125 654.312 43.4688 654.375 43.0938C655.062 42.9062 655.719 42.6562 656.344 42.3438C657.031 41.9688 657.656 41.5938 658.219 41.2188C659.094 40.7188 659.875 40.2812 660.562 39.9062C661.312 39.4688 662.031 39.125 662.719 38.875C663.469 38.5625 664.25 38.3125 665.062 38.125C665.875 37.9375 666.812 37.7812 667.875 37.6562C668.375 37.6562 668.688 37.5625 668.812 37.375C669 37.1875 669.25 36.9688 669.562 36.7188C670.312 36.8438 671.062 36.9688 671.812 37.0938C672.562 37.1562 673.312 37.1875 674.062 37.1875C675.562 37.1875 676.969 36.9062 678.281 36.3438C680.156 36.3438 682 36.3125 683.812 36.25C685.688 36.1875 687.562 36.1562 689.438 36.1562C691.062 36.1562 692.688 36.2188 694.312 36.3438C695.938 36.4688 697.531 36.6875 699.094 37C699.656 36.8125 700.281 36.7188 700.969 36.7188C701.719 36.7188 702.469 36.8125 703.219 37C704.031 37.125 704.812 37.125 705.562 37C705.625 37.6875 705.781 38.2812 706.031 38.7812C706.344 39.2188 706.5 39.75 706.5 40.375Z" fill="black"/>
</svg>
